<svg width="42" height="27" viewBox="0 0 42 27" fill="none" xmlns="http://www.w3.org/2000/svg">
<path id="Vector" fill-rule="evenodd" clip-rule="evenodd" d="M42 1.76087C42 2.22788 41.8456 2.67577 41.5709 3.00599C41.2961 3.33622 40.9235 3.52174 40.5349 3.52174H1.46512C1.07654 3.52174 0.703885 3.33622 0.429123 3.00599C0.15436 2.67577 0 2.22788 0 1.76087C0 1.29386 0.15436 0.845974 0.429123 0.515747C0.703885 0.185519 1.07654 0 1.46512 0H40.5349C40.9235 0 41.2961 0.185519 41.5709 0.515747C41.8456 0.845974 42 1.29386 42 1.76087ZM36.1395 13.5C36.1395 13.967 35.9852 14.4149 35.7104 14.7451C35.4356 15.0753 35.063 15.2609 34.6744 15.2609H7.32558C6.93701 15.2609 6.56435 15.0753 6.28959 14.7451C6.01482 14.4149 5.86047 13.967 5.86047 13.5C5.86047 13.033 6.01482 12.5851 6.28959 12.2549C6.56435 11.9247 6.93701 11.7391 7.32558 11.7391H34.6744C35.063 11.7391 35.4356 11.9247 35.7104 12.2549C35.9852 12.5851 36.1395 13.033 36.1395 13.5ZM30.2791 25.2391C30.2791 25.7061 30.1247 26.154 29.8499 26.4843C29.5752 26.8145 29.2025 27 28.814 27H13.186C12.7975 27 12.4248 26.8145 12.1501 26.4843C11.8753 26.154 11.7209 25.7061 11.7209 25.2391C11.7209 24.7721 11.8753 24.3242 12.1501 23.994C12.4248 23.6638 12.7975 23.4783 13.186 23.4783H28.814C29.2025 23.4783 29.5752 23.6638 29.8499 23.994C30.1247 24.3242 30.2791 24.7721 30.2791 25.2391Z" fill="black"/>
</svg>
